<svg width="25" height="25" viewBox="0 0 25 25" fill="none" xmlns="http://www.w3.org/2000/svg">
<path d="M6.71777 2.25049L3.71777 6.25049V20.2505C3.71777 20.7809 3.92849 21.2896 4.30356 21.6647C4.67863 22.0398 5.18734 22.2505 5.71777 22.2505H19.7178C20.2482 22.2505 20.7569 22.0398 21.132 21.6647C21.5071 21.2896 21.7178 20.7809 21.7178 20.2505V6.25049L18.7178 2.25049H6.71777Z" stroke="black" stroke-width="2" stroke-linecap="round" stroke-linejoin="round"/>
<path d="M3.71777 6.25049H21.7178" stroke="black" stroke-width="2" stroke-linecap="round" stroke-linejoin="round"/>
<path d="M16.7178 10.2505C16.7178 11.3114 16.2963 12.3288 15.5462 13.0789C14.7961 13.8291 13.7786 14.2505 12.7178 14.2505C11.6569 14.2505 10.6395 13.8291 9.88935 13.0789C9.1392 12.3288 8.71777 11.3114 8.71777 10.2505" stroke="black" stroke-width="2" stroke-linecap="round" stroke-linejoin="round"/>
</svg>
